<mxfile host="65bd71144e">
    <diagram id="br_0ZCZWNIeTR_WMkaFn" name="Page-1">
        <mxGraphModel dx="1451" dy="1043" grid="1" gridSize="10" guides="1" tooltips="1" connect="1" arrows="1" fold="1" page="1" pageScale="1" pageWidth="827" pageHeight="1169" background="#ffffff" math="0" shadow="0">
            <root>
                <mxCell id="0"/>
                <mxCell id="5" value="Background" style="locked=1;" parent="0"/>
                <mxCell id="6" value="" style="rounded=1;whiteSpace=wrap;html=1;fontFamily=Lucida Console;fontSize=32;arcSize=2;shadow=1;" parent="5" vertex="1">
                    <mxGeometry width="1320" height="940" as="geometry"/>
                </mxCell>
                <mxCell id="16" value="Boundaries" style="locked=1;" parent="0"/>
                <mxCell id="17" value="" style="rounded=1;whiteSpace=wrap;html=1;shadow=0;labelBackgroundColor=none;labelBorderColor=none;strokeColor=#000000;fontFamily=Lucida Console;fontSize=10;fillColor=none;arcSize=2;dashed=1;dashPattern=1 4;" parent="16" vertex="1">
                    <mxGeometry x="160" y="80" width="1120" height="820" as="geometry"/>
                </mxCell>
                <mxCell id="24" value="wan-bc" style="shape=image;verticalLabelPosition=middle;labelBackgroundColor=none;verticalAlign=middle;aspect=fixed;imageAspect=0;image=data:image/svg+xml,PHN2ZyB4bWxucz0iaHR0cDovL3d3dy53My5vcmcvMjAwMC9zdmciIHZpZXdCb3g9IjAgMCAyNCAyNCI+PHBhdGggZD0iTTE3LDNBMiwyIDAgMCwxIDE5LDVWMTVBMiwyIDAgMCwxIDE3LDE3SDEzVjE5SDE0QTEsMSAwIDAsMSAxNSwyMEgyMlYyMkgxNUExLDEgMCAwLDEgMTQsMjNIMTBBMSwxIDAgMCwxIDksMjJIMlYyMEg5QTEsMSAwIDAsMSAxMCwxOUgxMVYxN0g3QzUuODksMTcgNSwxNi4xIDUsMTVWNUEyLDIgMCAwLDEgNywzSDE3WiIvPjwvc3ZnPg==;labelPosition=right;align=left;spacingLeft=5;fontSize=10;fontFamily=Lucida Console;" parent="16" vertex="1">
                    <mxGeometry x="170" y="90" width="20" height="20" as="geometry"/>
                </mxCell>
                <mxCell id="36" value="" style="rounded=1;whiteSpace=wrap;html=1;shadow=0;labelBackgroundColor=none;labelBorderColor=none;strokeColor=#000000;fontFamily=Lucida Console;fontSize=10;fillColor=none;arcSize=6;dashed=1;dashPattern=1 4;" parent="16" vertex="1">
                    <mxGeometry x="200" y="140" width="160" height="220" as="geometry"/>
                </mxCell>
                <mxCell id="37" value="lan-ws" style="shape=image;verticalLabelPosition=middle;labelBackgroundColor=none;verticalAlign=middle;aspect=fixed;imageAspect=0;image=data:image/svg+xml,PHN2ZyB4bWxucz0iaHR0cDovL3d3dy53My5vcmcvMjAwMC9zdmciIHZpZXdCb3g9IjAgMCAyNCAyNCI+PHBhdGggZD0iTTE3LDNBMiwyIDAgMCwxIDE5LDVWMTVBMiwyIDAgMCwxIDE3LDE3SDEzVjE5SDE0QTEsMSAwIDAsMSAxNSwyMEgyMlYyMkgxNUExLDEgMCAwLDEgMTQsMjNIMTBBMSwxIDAgMCwxIDksMjJIMlYyMEg5QTEsMSAwIDAsMSAxMCwxOUgxMVYxN0g3QzUuODksMTcgNSwxNi4xIDUsMTVWNUEyLDIgMCAwLDEgNywzSDE3WiIvPjwvc3ZnPg==;labelPosition=right;align=left;spacingLeft=5;fontSize=10;fontFamily=Lucida Console;" parent="16" vertex="1">
                    <mxGeometry x="210" y="150" width="20" height="20" as="geometry"/>
                </mxCell>
                <mxCell id="38" value="" style="rounded=1;whiteSpace=wrap;html=1;shadow=0;labelBackgroundColor=none;labelBorderColor=none;strokeColor=#000000;fontFamily=Lucida Console;fontSize=10;fillColor=none;arcSize=2;dashed=1;dashPattern=1 4;" parent="16" vertex="1">
                    <mxGeometry x="400" y="140" width="840" height="720" as="geometry"/>
                </mxCell>
                <mxCell id="39" value="lan-dc" style="shape=image;verticalLabelPosition=middle;labelBackgroundColor=none;verticalAlign=middle;aspect=fixed;imageAspect=0;image=data:image/svg+xml,PHN2ZyB4bWxucz0iaHR0cDovL3d3dy53My5vcmcvMjAwMC9zdmciIHZpZXdCb3g9IjAgMCAyNCAyNCI+PHBhdGggZD0iTTE3LDNBMiwyIDAgMCwxIDE5LDVWMTVBMiwyIDAgMCwxIDE3LDE3SDEzVjE5SDE0QTEsMSAwIDAsMSAxNSwyMEgyMlYyMkgxNUExLDEgMCAwLDEgMTQsMjNIMTBBMSwxIDAgMCwxIDksMjJIMlYyMEg5QTEsMSAwIDAsMSAxMCwxOUgxMVYxN0g3QzUuODksMTcgNSwxNi4xIDUsMTVWNUEyLDIgMCAwLDEgNywzSDE3WiIvPjwvc3ZnPg==;labelPosition=right;align=left;spacingLeft=5;fontSize=10;fontFamily=Lucida Console;" parent="16" vertex="1">
                    <mxGeometry x="410" y="150" width="20" height="20" as="geometry"/>
                </mxCell>
                <mxCell id="47" value="" style="rounded=1;whiteSpace=wrap;html=1;shadow=0;labelBackgroundColor=none;labelBorderColor=none;strokeColor=#000000;fontFamily=Lucida Console;fontSize=10;fillColor=none;arcSize=2;dashed=1;dashPattern=1 4;" parent="16" vertex="1">
                    <mxGeometry x="480" y="200" width="720" height="620" as="geometry"/>
                </mxCell>
                <mxCell id="48" value="vpc-containerserver" style="shape=image;verticalLabelPosition=middle;labelBackgroundColor=none;verticalAlign=middle;aspect=fixed;imageAspect=0;image=data:image/svg+xml,PHN2ZyB4bWxucz0iaHR0cDovL3d3dy53My5vcmcvMjAwMC9zdmciIHZpZXdCb3g9IjAgMCAyNCAyNCI+PHBhdGggZD0iTTE3LDNBMiwyIDAgMCwxIDE5LDVWMTVBMiwyIDAgMCwxIDE3LDE3SDEzVjE5SDE0QTEsMSAwIDAsMSAxNSwyMEgyMlYyMkgxNUExLDEgMCAwLDEgMTQsMjNIMTBBMSwxIDAgMCwxIDksMjJIMlYyMEg5QTEsMSAwIDAsMSAxMCwxOUgxMVYxN0g3QzUuODksMTcgNSwxNi4xIDUsMTVWNUEyLDIgMCAwLDEgNywzSDE3WiIvPjwvc3ZnPg==;labelPosition=right;align=left;spacingLeft=5;fontSize=10;fontFamily=Lucida Console;" parent="16" vertex="1">
                    <mxGeometry x="490" y="210" width="20" height="20" as="geometry"/>
                </mxCell>
                <mxCell id="49" style="edgeStyle=none;html=1;exitX=1;exitY=0.5;exitDx=0;exitDy=0;entryX=0;entryY=0.5;entryDx=0;entryDy=0;fontFamily=Lucida Console;fontSize=10;endArrow=none;endFill=0;" parent="16" source="117" target="116" edge="1">
                    <mxGeometry relative="1" as="geometry">
                        <Array as="points">
                            <mxPoint x="420" y="260"/>
                            <mxPoint x="420" y="320"/>
                        </Array>
                    </mxGeometry>
                </mxCell>
                <mxCell id="1" value="Main" style="locked=1;" parent="0"/>
                <mxCell id="2" value="Deployment Diagram" style="text;html=1;strokeColor=none;fillColor=none;align=left;verticalAlign=middle;whiteSpace=wrap;rounded=0;fontFamily=Lucida Console;fontSize=32;" parent="1" vertex="1">
                    <mxGeometry x="20" y="20" width="640" height="40" as="geometry"/>
                </mxCell>
                <mxCell id="26" style="edgeStyle=none;html=1;exitX=0.5;exitY=1;exitDx=0;exitDy=0;fontFamily=Lucida Console;fontSize=10;entryX=0;entryY=0.5;entryDx=0;entryDy=0;" parent="1" source="119" target="118" edge="1">
                    <mxGeometry relative="1" as="geometry">
                        <mxPoint x="300" y="200" as="targetPoint"/>
                        <Array as="points">
                            <mxPoint x="80" y="260"/>
                        </Array>
                    </mxGeometry>
                </mxCell>
                <mxCell id="33" value="" style="group;fontSize=10;" parent="1" vertex="1" connectable="0">
                    <mxGeometry x="40" y="80" width="80" height="120" as="geometry"/>
                </mxCell>
                <mxCell id="27" value="" style="rounded=1;whiteSpace=wrap;html=1;shadow=0;labelBackgroundColor=none;labelBorderColor=none;strokeColor=#000000;fontFamily=Lucida Console;fontSize=10;fillColor=default;" parent="33" vertex="1">
                    <mxGeometry width="80" height="120" as="geometry"/>
                </mxCell>
                <mxCell id="13" value="User" style="shape=image;verticalLabelPosition=bottom;labelBackgroundColor=default;verticalAlign=top;aspect=fixed;imageAspect=0;image=data:image/svg+xml,PHN2ZyB4bWxucz0iaHR0cDovL3d3dy53My5vcmcvMjAwMC9zdmciIHZpZXdCb3g9IjAgMCAyNCAyNCI+PHBhdGggZD0iTTEyLDRBNCw0IDAgMCwxIDE2LDhBNCw0IDAgMCwxIDEyLDEyQTQsNCAwIDAsMSA4LDhBNCw0IDAgMCwxIDEyLDRNMTIsMTRDMTYuNDIsMTQgMjAsMTUuNzkgMjAsMThWMjBINFYxOEM0LDE1Ljc5IDcuNTgsMTQgMTIsMTRaIi8+PC9zdmc+;fontFamily=Lucida Console;fontSize=10;" parent="33" vertex="1">
                    <mxGeometry x="20" y="20" width="40" height="40" as="geometry"/>
                </mxCell>
                <mxCell id="35" value="" style="group" parent="1" vertex="1" connectable="0">
                    <mxGeometry x="240" y="200" width="80" height="120" as="geometry"/>
                </mxCell>
                <mxCell id="34" value="" style="rounded=1;whiteSpace=wrap;html=1;shadow=0;labelBackgroundColor=none;labelBorderColor=none;strokeColor=#000000;fontFamily=Lucida Console;fontSize=10;fillColor=default;" parent="35" vertex="1">
                    <mxGeometry width="80" height="120" as="geometry"/>
                </mxCell>
                <mxCell id="25" value="Workstation" style="shape=image;verticalLabelPosition=bottom;labelBackgroundColor=default;verticalAlign=top;aspect=fixed;imageAspect=0;image=data:image/svg+xml,PHN2ZyB4bWxucz0iaHR0cDovL3d3dy53My5vcmcvMjAwMC9zdmciIHZpZXdCb3g9IjAgMCAyNCAyNCI+PHBhdGggZD0iTTYsMkM0Ljg5LDIgNCwyLjg5IDQsNFYxMkM0LDEzLjExIDQuODksMTQgNiwxNEgxOEMxOS4xMSwxNCAyMCwxMy4xMSAyMCwxMlY0QzIwLDIuODkgMTkuMTEsMiAxOCwySDZNNiw0SDE4VjEySDZWNE00LDE1QzIuODksMTUgMiwxNS44OSAyLDE3VjIwQzIsMjEuMTEgMi44OSwyMiA0LDIySDIwQzIxLjExLDIyIDIyLDIxLjExIDIyLDIwVjE3QzIyLDE1Ljg5IDIxLjExLDE1IDIwLDE1SDRNOCwxN0gyMFYyMEg4VjE3TTksMTcuNzVWMTkuMjVIMTNWMTcuNzVIOU0xNSwxNy43NVYxOS4yNUgxOVYxNy43NUgxNVoiLz48L3N2Zz4=;fontFamily=Lucida Console;fontSize=10;" parent="35" vertex="1">
                    <mxGeometry x="20" y="20" width="40" height="40" as="geometry"/>
                </mxCell>
                <mxCell id="46" value="" style="group" parent="1" vertex="1" connectable="0">
                    <mxGeometry x="440" y="260" width="80" height="120" as="geometry"/>
                </mxCell>
                <mxCell id="44" value="" style="rounded=1;whiteSpace=wrap;html=1;shadow=0;labelBackgroundColor=none;labelBorderColor=none;strokeColor=#000000;fontFamily=Lucida Console;fontSize=10;fillColor=default;" parent="46" vertex="1">
                    <mxGeometry width="80" height="120" as="geometry"/>
                </mxCell>
                <mxCell id="45" value="Container&#10;Server" style="shape=image;verticalLabelPosition=bottom;labelBackgroundColor=default;verticalAlign=top;aspect=fixed;imageAspect=0;image=data:image/svg+xml,PHN2ZyB4bWxucz0iaHR0cDovL3d3dy53My5vcmcvMjAwMC9zdmciIHZpZXdCb3g9IjAgMCAyNCAyNCI+PHBhdGggZD0iTTIxLjgxIDEwLjI1QzIxLjc1IDEwLjIxIDIxLjI1IDkuODIgMjAuMTcgOS44MkMxOS44OSA5LjgyIDE5LjYxIDkuODUgMTkuMzMgOS45QzE5LjEyIDguNSAxNy45NSA3Ljc5IDE3LjkgNy43NkwxNy42MSA3LjU5TDE3LjQzIDcuODZDMTcuMTkgOC4yMiAxNyA4LjYzIDE2LjkyIDkuMDVDMTYuNzIgOS44NSAxNi44NCAxMC42MSAxNy4yNSAxMS4yNkMxNi43NiAxMS41NCAxNS45NiAxMS42MSAxNS43OSAxMS42MUgyLjYyQzIuMjggMTEuNjEgMiAxMS44OSAyIDEyLjI0QzIgMTMuMzkgMi4xOCAxNC41NCAyLjU4IDE1LjYyQzMuMDMgMTYuODEgMy43MSAxNy42OSA0LjU4IDE4LjIzQzUuNTYgMTguODMgNy4xNyAxOS4xNyA5IDE5LjE3QzkuNzkgMTkuMTcgMTAuNjEgMTkuMSAxMS40MiAxOC45NUMxMi41NCAxOC43NSAxMy42MiAxOC4zNiAxNC42MSAxNy43OUMxNS40MyAxNy4zMiAxNi4xNiAxNi43MiAxNi43OCAxNkMxNy44MyAxNC44MyAxOC40NSAxMy41IDE4LjkgMTIuMzVIMTkuMDlDMjAuMjMgMTIuMzUgMjAuOTQgMTEuODkgMjEuMzMgMTEuNUMyMS41OSAxMS4yNiAyMS43OCAxMC45NyAyMS45MiAxMC42M0wyMiAxMC4zOUwyMS44MSAxMC4yNU0zLjg1IDExLjI0SDUuNjFDNS42OSAxMS4yNCA1Ljc3IDExLjE3IDUuNzcgMTEuMDhWOS41QzUuNzcgOS40MiA1LjcgOS4zNCA1LjYxIDkuMzRIMy44NUMzLjc2IDkuMzQgMy42OSA5LjQxIDMuNjkgOS41VjExLjA4QzMuNyAxMS4xNyAzLjc2IDExLjI0IDMuODUgMTEuMjRNNi4yOCAxMS4yNEg4LjA0QzguMTIgMTEuMjQgOC4yIDExLjE3IDguMiAxMS4wOFY5LjVDOC4yIDkuNDIgOC4xMyA5LjM0IDguMDQgOS4zNEg2LjI4QzYuMTkgOS4zNCA2LjEyIDkuNDEgNi4xMiA5LjVWMTEuMDhDNi4xMyAxMS4xNyA2LjE5IDExLjI0IDYuMjggMTEuMjRNOC43NSAxMS4yNEgxMC41QzEwLjYgMTEuMjQgMTAuNjcgMTEuMTcgMTAuNjcgMTEuMDhWOS41QzEwLjY3IDkuNDIgMTAuNjEgOS4zNCAxMC41IDkuMzRIOC43NUM4LjY3IDkuMzQgOC42IDkuNDEgOC42IDkuNVYxMS4wOEM4LjYgMTEuMTcgOC42NiAxMS4yNCA4Ljc1IDExLjI0TTExLjE5IDExLjI0SDEyLjk2QzEzLjA0IDExLjI0IDEzLjExIDExLjE3IDEzLjExIDExLjA4VjkuNUMxMy4xMSA5LjQyIDEzLjA1IDkuMzQgMTIuOTYgOS4zNEgxMS4xOUMxMS4xMSA5LjM0IDExLjA0IDkuNDEgMTEuMDQgOS41VjExLjA4QzExLjA0IDExLjE3IDExLjExIDExLjI0IDExLjE5IDExLjI0TTYuMjggOUg4LjA0QzguMTIgOSA4LjIgOC45MSA4LjIgOC44MlY3LjI1QzguMiA3LjE2IDguMTMgNy4wOSA4LjA0IDcuMDlINi4yOEM2LjE5IDcuMDkgNi4xMiA3LjE1IDYuMTIgNy4yNVY4LjgyQzYuMTMgOC45MSA2LjE5IDkgNi4yOCA5TTguNzUgOUgxMC41QzEwLjYgOSAxMC42NyA4LjkxIDEwLjY3IDguODJWNy4yNUMxMC42NyA3LjE2IDEwLjYxIDcuMDkgMTAuNSA3LjA5SDguNzVDOC42NyA3LjA5IDguNiA3LjE1IDguNiA3LjI1VjguODJDOC42IDguOTEgOC42NiA5IDguNzUgOU0xMS4xOSA5SDEyLjk2QzEzLjA0IDkgMTMuMTEgOC45MSAxMy4xMSA4LjgyVjcuMjVDMTMuMTEgNy4xNiAxMy4wNCA3LjA5IDEyLjk2IDcuMDlIMTEuMTlDMTEuMTEgNy4wOSAxMS4wNCA3LjE1IDExLjA0IDcuMjVWOC44MkMxMS4wNCA4LjkxIDExLjExIDkgMTEuMTkgOU0xMS4xOSA2LjcySDEyLjk2QzEzLjA0IDYuNzIgMTMuMTEgNi42NSAxMy4xMSA2LjU2VjVDMTMuMTEgNC45IDEzLjA0IDQuODMgMTIuOTYgNC44M0gxMS4xOUMxMS4xMSA0LjgzIDExLjA0IDQuODkgMTEuMDQgNVY2LjU2QzExLjA0IDYuNjQgMTEuMTEgNi43MiAxMS4xOSA2LjcyTTEzLjY1IDExLjI0SDE1LjQxQzE1LjUgMTEuMjQgMTUuNTcgMTEuMTcgMTUuNTcgMTEuMDhWOS41QzE1LjU3IDkuNDIgMTUuNSA5LjM0IDE1LjQxIDkuMzRIMTMuNjVDMTMuNTcgOS4zNCAxMy41IDkuNDEgMTMuNSA5LjVWMTEuMDhDMTMuNSAxMS4xNyAxMy41NyAxMS4yNCAxMy42NSAxMS4yNCIvPjwvc3ZnPg==;fontFamily=Lucida Console;fontSize=10;" parent="46" vertex="1">
                    <mxGeometry x="20" y="20" width="40" height="40" as="geometry"/>
                </mxCell>
                <mxCell id="69" value="" style="group;fontFamily=Lucida Console;" parent="1" vertex="1" connectable="0">
                    <mxGeometry x="720" y="260" width="80" height="120" as="geometry"/>
                </mxCell>
                <mxCell id="70" value="" style="rounded=1;whiteSpace=wrap;html=1;shadow=0;labelBackgroundColor=none;labelBorderColor=none;strokeColor=#000000;fontFamily=Lucida Console;fontSize=10;fillColor=default;" parent="69" vertex="1">
                    <mxGeometry width="80" height="120" as="geometry"/>
                </mxCell>
                <mxCell id="71" value="WebApp" style="shape=image;verticalLabelPosition=bottom;labelBackgroundColor=default;verticalAlign=top;aspect=fixed;imageAspect=0;image=data:image/svg+xml,PHN2ZyB4bWxucz0iaHR0cDovL3d3dy53My5vcmcvMjAwMC9zdmciIHZpZXdCb3g9IjAgMCAyNCAyNCI+PHBhdGggZD0iTTguOTUgMTMuNEg2LjU4QTUuNSA1LjUgMCAwIDEgNi41OCAxMC42SDguOTVBMTEuNTYgMTEuNTYgMCAwIDAgOC44NSAxMkExMS41NiAxMS41NiAwIDAgMCA4Ljk1IDEzLjRNNy4xNiA5LjJIOS4yQTEyLjA2IDEyLjA2IDAgMCAxIDEwLjE4IDYuNzFBNS41NSA1LjU1IDAgMCAwIDcuMTYgOS4yTTE2Ljg0IDkuMkE1LjU5IDUuNTkgMCAwIDAgMTMuODEgNi43MUExMC45NSAxMC45NSAwIDAgMSAxNC43OCA5LjJNMTIgMTcuNTdBOS41IDkuNSAwIDAgMCAxMy4zNCAxNC44SDEwLjY2QTkuNSA5LjUgMCAwIDAgMTIgMTcuNTdNMTIgNi40MkE5LjUzIDkuNTMgMCAwIDAgMTAuNjYgOS4ySDEzLjM0QTkuNTMgOS41MyAwIDAgMCAxMiA2LjQyTTcuMTYgMTQuOEE1LjYxIDUuNjEgMCAwIDAgMTAuMTggMTcuMjlBMTIuMDYgMTIuMDYgMCAwIDEgOS4yIDE0LjhNMjEgNVYxOUEyIDIgMCAwIDEgMTkgMjFINUEyIDIgMCAwIDEgMyAxOVY1QTIgMiAwIDAgMSA1IDNIMTlBMiAyIDAgMCAxIDIxIDVNMTkgMTJBNyA3IDAgMSAwIDEyIDE5QTcgNyAwIDAgMCAxOSAxMk0xNS4xNSAxMkExMS41NiAxMS41NiAwIDAgMSAxNS4wNSAxMy40SDE3LjQyQTUuNSA1LjUgMCAwIDAgMTcuNDIgMTAuNkgxNS4wNUExMS41NiAxMS41NiAwIDAgMSAxNS4xNSAxMk0xMy44MSAxNy4yOUE1LjYyIDUuNjIgMCAwIDAgMTYuODQgMTQuOEgxNC43OEExMC45NSAxMC45NSAwIDAgMSAxMy44MSAxNy4yOU0xMC4zNiAxMC42QTguODEgOC44MSAwIDAgMCAxMC4zNiAxMy40SDEzLjY0QTEwLjMgMTAuMyAwIDAgMCAxMy43NSAxMkExMC4yMSAxMC4yMSAwIDAgMCAxMy42NCAxMC42WiIvPjwvc3ZnPg==;fontFamily=Lucida Console;fontSize=10;" parent="69" vertex="1">
                    <mxGeometry x="20" y="20" width="40" height="40" as="geometry"/>
                </mxCell>
                <mxCell id="72" value="" style="shape=image;verticalLabelPosition=middle;labelBackgroundColor=default;verticalAlign=middle;aspect=fixed;imageAspect=0;image=data:image/svg+xml,PHN2ZyB4bWxucz0iaHR0cDovL3d3dy53My5vcmcvMjAwMC9zdmciIHZpZXdCb3g9IjAgMCAyNCAyNCI+PHBhdGggZD0iTTIxLjgxIDEwLjI1QzIxLjc1IDEwLjIxIDIxLjI1IDkuODIgMjAuMTcgOS44MkMxOS44OSA5LjgyIDE5LjYxIDkuODUgMTkuMzMgOS45QzE5LjEyIDguNSAxNy45NSA3Ljc5IDE3LjkgNy43NkwxNy42MSA3LjU5TDE3LjQzIDcuODZDMTcuMTkgOC4yMiAxNyA4LjYzIDE2LjkyIDkuMDVDMTYuNzIgOS44NSAxNi44NCAxMC42MSAxNy4yNSAxMS4yNkMxNi43NiAxMS41NCAxNS45NiAxMS42MSAxNS43OSAxMS42MUgyLjYyQzIuMjggMTEuNjEgMiAxMS44OSAyIDEyLjI0QzIgMTMuMzkgMi4xOCAxNC41NCAyLjU4IDE1LjYyQzMuMDMgMTYuODEgMy43MSAxNy42OSA0LjU4IDE4LjIzQzUuNTYgMTguODMgNy4xNyAxOS4xNyA5IDE5LjE3QzkuNzkgMTkuMTcgMTAuNjEgMTkuMSAxMS40MiAxOC45NUMxMi41NCAxOC43NSAxMy42MiAxOC4zNiAxNC42MSAxNy43OUMxNS40MyAxNy4zMiAxNi4xNiAxNi43MiAxNi43OCAxNkMxNy44MyAxNC44MyAxOC40NSAxMy41IDE4LjkgMTIuMzVIMTkuMDlDMjAuMjMgMTIuMzUgMjAuOTQgMTEuODkgMjEuMzMgMTEuNUMyMS41OSAxMS4yNiAyMS43OCAxMC45NyAyMS45MiAxMC42M0wyMiAxMC4zOUwyMS44MSAxMC4yNU0zLjg1IDExLjI0SDUuNjFDNS42OSAxMS4yNCA1Ljc3IDExLjE3IDUuNzcgMTEuMDhWOS41QzUuNzcgOS40MiA1LjcgOS4zNCA1LjYxIDkuMzRIMy44NUMzLjc2IDkuMzQgMy42OSA5LjQxIDMuNjkgOS41VjExLjA4QzMuNyAxMS4xNyAzLjc2IDExLjI0IDMuODUgMTEuMjRNNi4yOCAxMS4yNEg4LjA0QzguMTIgMTEuMjQgOC4yIDExLjE3IDguMiAxMS4wOFY5LjVDOC4yIDkuNDIgOC4xMyA5LjM0IDguMDQgOS4zNEg2LjI4QzYuMTkgOS4zNCA2LjEyIDkuNDEgNi4xMiA5LjVWMTEuMDhDNi4xMyAxMS4xNyA2LjE5IDExLjI0IDYuMjggMTEuMjRNOC43NSAxMS4yNEgxMC41QzEwLjYgMTEuMjQgMTAuNjcgMTEuMTcgMTAuNjcgMTEuMDhWOS41QzEwLjY3IDkuNDIgMTAuNjEgOS4zNCAxMC41IDkuMzRIOC43NUM4LjY3IDkuMzQgOC42IDkuNDEgOC42IDkuNVYxMS4wOEM4LjYgMTEuMTcgOC42NiAxMS4yNCA4Ljc1IDExLjI0TTExLjE5IDExLjI0SDEyLjk2QzEzLjA0IDExLjI0IDEzLjExIDExLjE3IDEzLjExIDExLjA4VjkuNUMxMy4xMSA5LjQyIDEzLjA1IDkuMzQgMTIuOTYgOS4zNEgxMS4xOUMxMS4xMSA5LjM0IDExLjA0IDkuNDEgMTEuMDQgOS41VjExLjA4QzExLjA0IDExLjE3IDExLjExIDExLjI0IDExLjE5IDExLjI0TTYuMjggOUg4LjA0QzguMTIgOSA4LjIgOC45MSA4LjIgOC44MlY3LjI1QzguMiA3LjE2IDguMTMgNy4wOSA4LjA0IDcuMDlINi4yOEM2LjE5IDcuMDkgNi4xMiA3LjE1IDYuMTIgNy4yNVY4LjgyQzYuMTMgOC45MSA2LjE5IDkgNi4yOCA5TTguNzUgOUgxMC41QzEwLjYgOSAxMC42NyA4LjkxIDEwLjY3IDguODJWNy4yNUMxMC42NyA3LjE2IDEwLjYxIDcuMDkgMTAuNSA3LjA5SDguNzVDOC42NyA3LjA5IDguNiA3LjE1IDguNiA3LjI1VjguODJDOC42IDguOTEgOC42NiA5IDguNzUgOU0xMS4xOSA5SDEyLjk2QzEzLjA0IDkgMTMuMTEgOC45MSAxMy4xMSA4LjgyVjcuMjVDMTMuMTEgNy4xNiAxMy4wNCA3LjA5IDEyLjk2IDcuMDlIMTEuMTlDMTEuMTEgNy4wOSAxMS4wNCA3LjE1IDExLjA0IDcuMjVWOC44MkMxMS4wNCA4LjkxIDExLjExIDkgMTEuMTkgOU0xMS4xOSA2LjcySDEyLjk2QzEzLjA0IDYuNzIgMTMuMTEgNi42NSAxMy4xMSA2LjU2VjVDMTMuMTEgNC45IDEzLjA0IDQuODMgMTIuOTYgNC44M0gxMS4xOUMxMS4xMSA0LjgzIDExLjA0IDQuODkgMTEuMDQgNVY2LjU2QzExLjA0IDYuNjQgMTEuMTEgNi43MiAxMS4xOSA2LjcyTTEzLjY1IDExLjI0SDE1LjQxQzE1LjUgMTEuMjQgMTUuNTcgMTEuMTcgMTUuNTcgMTEuMDhWOS41QzE1LjU3IDkuNDIgMTUuNSA5LjM0IDE1LjQxIDkuMzRIMTMuNjVDMTMuNTcgOS4zNCAxMy41IDkuNDEgMTMuNSA5LjVWMTEuMDhDMTMuNSAxMS4xNyAxMy41NyAxMS4yNCAxMy42NSAxMS4yNCIvPjwvc3ZnPg==;fontFamily=Lucida Console;fontSize=8;labelPosition=right;align=left;" parent="69" vertex="1">
                    <mxGeometry x="60" y="100" width="20" height="20" as="geometry"/>
                </mxCell>
                <mxCell id="73" style="edgeStyle=none;html=1;exitX=1;exitY=0.5;exitDx=0;exitDy=0;entryX=0;entryY=0.5;entryDx=0;entryDy=0;fontFamily=Lucida Console;fontSize=10;startArrow=none;" parent="1" source="129" target="114" edge="1">
                    <mxGeometry relative="1" as="geometry">
                        <mxPoint x="520" y="250" as="sourcePoint"/>
                        <Array as="points"/>
                    </mxGeometry>
                </mxCell>
                <mxCell id="74" value="" style="group;fontFamily=Lucida Console;" parent="1" vertex="1" connectable="0">
                    <mxGeometry x="920" y="460" width="80" height="120" as="geometry"/>
                </mxCell>
                <mxCell id="75" value="" style="rounded=1;whiteSpace=wrap;html=1;shadow=0;labelBackgroundColor=none;labelBorderColor=none;strokeColor=#000000;fontFamily=Lucida Console;fontSize=10;fillColor=default;" parent="74" vertex="1">
                    <mxGeometry width="80" height="120" as="geometry"/>
                </mxCell>
                <mxCell id="76" value="" style="shape=image;verticalLabelPosition=middle;labelBackgroundColor=default;verticalAlign=middle;aspect=fixed;imageAspect=0;image=data:image/svg+xml,PHN2ZyB4bWxucz0iaHR0cDovL3d3dy53My5vcmcvMjAwMC9zdmciIHZpZXdCb3g9IjAgMCAyNCAyNCI+PHBhdGggZD0iTTIxLjgxIDEwLjI1QzIxLjc1IDEwLjIxIDIxLjI1IDkuODIgMjAuMTcgOS44MkMxOS44OSA5LjgyIDE5LjYxIDkuODUgMTkuMzMgOS45QzE5LjEyIDguNSAxNy45NSA3Ljc5IDE3LjkgNy43NkwxNy42MSA3LjU5TDE3LjQzIDcuODZDMTcuMTkgOC4yMiAxNyA4LjYzIDE2LjkyIDkuMDVDMTYuNzIgOS44NSAxNi44NCAxMC42MSAxNy4yNSAxMS4yNkMxNi43NiAxMS41NCAxNS45NiAxMS42MSAxNS43OSAxMS42MUgyLjYyQzIuMjggMTEuNjEgMiAxMS44OSAyIDEyLjI0QzIgMTMuMzkgMi4xOCAxNC41NCAyLjU4IDE1LjYyQzMuMDMgMTYuODEgMy43MSAxNy42OSA0LjU4IDE4LjIzQzUuNTYgMTguODMgNy4xNyAxOS4xNyA5IDE5LjE3QzkuNzkgMTkuMTcgMTAuNjEgMTkuMSAxMS40MiAxOC45NUMxMi41NCAxOC43NSAxMy42MiAxOC4zNiAxNC42MSAxNy43OUMxNS40MyAxNy4zMiAxNi4xNiAxNi43MiAxNi43OCAxNkMxNy44MyAxNC44MyAxOC40NSAxMy41IDE4LjkgMTIuMzVIMTkuMDlDMjAuMjMgMTIuMzUgMjAuOTQgMTEuODkgMjEuMzMgMTEuNUMyMS41OSAxMS4yNiAyMS43OCAxMC45NyAyMS45MiAxMC42M0wyMiAxMC4zOUwyMS44MSAxMC4yNU0zLjg1IDExLjI0SDUuNjFDNS42OSAxMS4yNCA1Ljc3IDExLjE3IDUuNzcgMTEuMDhWOS41QzUuNzcgOS40MiA1LjcgOS4zNCA1LjYxIDkuMzRIMy44NUMzLjc2IDkuMzQgMy42OSA5LjQxIDMuNjkgOS41VjExLjA4QzMuNyAxMS4xNyAzLjc2IDExLjI0IDMuODUgMTEuMjRNNi4yOCAxMS4yNEg4LjA0QzguMTIgMTEuMjQgOC4yIDExLjE3IDguMiAxMS4wOFY5LjVDOC4yIDkuNDIgOC4xMyA5LjM0IDguMDQgOS4zNEg2LjI4QzYuMTkgOS4zNCA2LjEyIDkuNDEgNi4xMiA5LjVWMTEuMDhDNi4xMyAxMS4xNyA2LjE5IDExLjI0IDYuMjggMTEuMjRNOC43NSAxMS4yNEgxMC41QzEwLjYgMTEuMjQgMTAuNjcgMTEuMTcgMTAuNjcgMTEuMDhWOS41QzEwLjY3IDkuNDIgMTAuNjEgOS4zNCAxMC41IDkuMzRIOC43NUM4LjY3IDkuMzQgOC42IDkuNDEgOC42IDkuNVYxMS4wOEM4LjYgMTEuMTcgOC42NiAxMS4yNCA4Ljc1IDExLjI0TTExLjE5IDExLjI0SDEyLjk2QzEzLjA0IDExLjI0IDEzLjExIDExLjE3IDEzLjExIDExLjA4VjkuNUMxMy4xMSA5LjQyIDEzLjA1IDkuMzQgMTIuOTYgOS4zNEgxMS4xOUMxMS4xMSA5LjM0IDExLjA0IDkuNDEgMTEuMDQgOS41VjExLjA4QzExLjA0IDExLjE3IDExLjExIDExLjI0IDExLjE5IDExLjI0TTYuMjggOUg4LjA0QzguMTIgOSA4LjIgOC45MSA4LjIgOC44MlY3LjI1QzguMiA3LjE2IDguMTMgNy4wOSA4LjA0IDcuMDlINi4yOEM2LjE5IDcuMDkgNi4xMiA3LjE1IDYuMTIgNy4yNVY4LjgyQzYuMTMgOC45MSA2LjE5IDkgNi4yOCA5TTguNzUgOUgxMC41QzEwLjYgOSAxMC42NyA4LjkxIDEwLjY3IDguODJWNy4yNUMxMC42NyA3LjE2IDEwLjYxIDcuMDkgMTAuNSA3LjA5SDguNzVDOC42NyA3LjA5IDguNiA3LjE1IDguNiA3LjI1VjguODJDOC42IDguOTEgOC42NiA5IDguNzUgOU0xMS4xOSA5SDEyLjk2QzEzLjA0IDkgMTMuMTEgOC45MSAxMy4xMSA4LjgyVjcuMjVDMTMuMTEgNy4xNiAxMy4wNCA3LjA5IDEyLjk2IDcuMDlIMTEuMTlDMTEuMTEgNy4wOSAxMS4wNCA3LjE1IDExLjA0IDcuMjVWOC44MkMxMS4wNCA4LjkxIDExLjExIDkgMTEuMTkgOU0xMS4xOSA2LjcySDEyLjk2QzEzLjA0IDYuNzIgMTMuMTEgNi42NSAxMy4xMSA2LjU2VjVDMTMuMTEgNC45IDEzLjA0IDQuODMgMTIuOTYgNC44M0gxMS4xOUMxMS4xMSA0LjgzIDExLjA0IDQuODkgMTEuMDQgNVY2LjU2QzExLjA0IDYuNjQgMTEuMTEgNi43MiAxMS4xOSA2LjcyTTEzLjY1IDExLjI0SDE1LjQxQzE1LjUgMTEuMjQgMTUuNTcgMTEuMTcgMTUuNTcgMTEuMDhWOS41QzE1LjU3IDkuNDIgMTUuNSA5LjM0IDE1LjQxIDkuMzRIMTMuNjVDMTMuNTcgOS4zNCAxMy41IDkuNDEgMTMuNSA5LjVWMTEuMDhDMTMuNSAxMS4xNyAxMy41NyAxMS4yNCAxMy42NSAxMS4yNCIvPjwvc3ZnPg==;fontFamily=Lucida Console;fontSize=8;labelPosition=right;align=left;" parent="74" vertex="1">
                    <mxGeometry x="60" y="100" width="20" height="20" as="geometry"/>
                </mxCell>
                <mxCell id="77" value="Database" style="shape=image;verticalLabelPosition=bottom;labelBackgroundColor=default;verticalAlign=top;aspect=fixed;imageAspect=0;image=data:image/svg+xml,PHN2ZyB4bWxucz0iaHR0cDovL3d3dy53My5vcmcvMjAwMC9zdmciIHZpZXdCb3g9IjAgMCAyNCAyNCI+PHBhdGggZD0iTTEyLDNDNy41OCwzIDQsNC43OSA0LDdDNCw5LjIxIDcuNTgsMTEgMTIsMTFDMTYuNDIsMTEgMjAsOS4yMSAyMCw3QzIwLDQuNzkgMTYuNDIsMyAxMiwzTTQsOVYxMkM0LDE0LjIxIDcuNTgsMTYgMTIsMTZDMTYuNDIsMTYgMjAsMTQuMjEgMjAsMTJWOUMyMCwxMS4yMSAxNi40MiwxMyAxMiwxM0M3LjU4LDEzIDQsMTEuMjEgNCw5TTQsMTRWMTdDNCwxOS4yMSA3LjU4LDIxIDEyLDIxQzE2LjQyLDIxIDIwLDE5LjIxIDIwLDE3VjE0QzIwLDE2LjIxIDE2LjQyLDE4IDEyLDE4QzcuNTgsMTggNCwxNi4yMSA0LDE0WiIvPjwvc3ZnPg==;fontFamily=Lucida Console;fontSize=10;" parent="74" vertex="1">
                    <mxGeometry x="20" y="20" width="40" height="40" as="geometry"/>
                </mxCell>
                <mxCell id="78" style="edgeStyle=none;html=1;exitX=1;exitY=0.5;exitDx=0;exitDy=0;entryX=0;entryY=0.5;entryDx=0;entryDy=0;fontFamily=Lucida Console;fontSize=10;endArrow=classic;endFill=1;" parent="1" source="102" target="104" edge="1">
                    <mxGeometry relative="1" as="geometry">
                        <Array as="points">
                            <mxPoint x="880" y="330"/>
                            <mxPoint x="880" y="510"/>
                        </Array>
                    </mxGeometry>
                </mxCell>
                <mxCell id="79" value="" style="group;fontFamily=Lucida Console;" parent="1" vertex="1" connectable="0">
                    <mxGeometry x="1080" y="460" width="80" height="120" as="geometry"/>
                </mxCell>
                <mxCell id="80" value="" style="rounded=1;whiteSpace=wrap;html=1;shadow=0;labelBackgroundColor=none;labelBorderColor=none;strokeColor=#000000;fontFamily=Lucida Console;fontSize=10;fillColor=default;" parent="79" vertex="1">
                    <mxGeometry width="80" height="120" as="geometry"/>
                </mxCell>
                <mxCell id="81" value="" style="shape=image;verticalLabelPosition=middle;labelBackgroundColor=default;verticalAlign=middle;aspect=fixed;imageAspect=0;image=data:image/svg+xml,PHN2ZyB4bWxucz0iaHR0cDovL3d3dy53My5vcmcvMjAwMC9zdmciIHZpZXdCb3g9IjAgMCAyNCAyNCI+PHBhdGggZD0iTTIxLjgxIDEwLjI1QzIxLjc1IDEwLjIxIDIxLjI1IDkuODIgMjAuMTcgOS44MkMxOS44OSA5LjgyIDE5LjYxIDkuODUgMTkuMzMgOS45QzE5LjEyIDguNSAxNy45NSA3Ljc5IDE3LjkgNy43NkwxNy42MSA3LjU5TDE3LjQzIDcuODZDMTcuMTkgOC4yMiAxNyA4LjYzIDE2LjkyIDkuMDVDMTYuNzIgOS44NSAxNi44NCAxMC42MSAxNy4yNSAxMS4yNkMxNi43NiAxMS41NCAxNS45NiAxMS42MSAxNS43OSAxMS42MUgyLjYyQzIuMjggMTEuNjEgMiAxMS44OSAyIDEyLjI0QzIgMTMuMzkgMi4xOCAxNC41NCAyLjU4IDE1LjYyQzMuMDMgMTYuODEgMy43MSAxNy42OSA0LjU4IDE4LjIzQzUuNTYgMTguODMgNy4xNyAxOS4xNyA5IDE5LjE3QzkuNzkgMTkuMTcgMTAuNjEgMTkuMSAxMS40MiAxOC45NUMxMi41NCAxOC43NSAxMy42MiAxOC4zNiAxNC42MSAxNy43OUMxNS40MyAxNy4zMiAxNi4xNiAxNi43MiAxNi43OCAxNkMxNy44MyAxNC44MyAxOC40NSAxMy41IDE4LjkgMTIuMzVIMTkuMDlDMjAuMjMgMTIuMzUgMjAuOTQgMTEuODkgMjEuMzMgMTEuNUMyMS41OSAxMS4yNiAyMS43OCAxMC45NyAyMS45MiAxMC42M0wyMiAxMC4zOUwyMS44MSAxMC4yNU0zLjg1IDExLjI0SDUuNjFDNS42OSAxMS4yNCA1Ljc3IDExLjE3IDUuNzcgMTEuMDhWOS41QzUuNzcgOS40MiA1LjcgOS4zNCA1LjYxIDkuMzRIMy44NUMzLjc2IDkuMzQgMy42OSA5LjQxIDMuNjkgOS41VjExLjA4QzMuNyAxMS4xNyAzLjc2IDExLjI0IDMuODUgMTEuMjRNNi4yOCAxMS4yNEg4LjA0QzguMTIgMTEuMjQgOC4yIDExLjE3IDguMiAxMS4wOFY5LjVDOC4yIDkuNDIgOC4xMyA5LjM0IDguMDQgOS4zNEg2LjI4QzYuMTkgOS4zNCA2LjEyIDkuNDEgNi4xMiA5LjVWMTEuMDhDNi4xMyAxMS4xNyA2LjE5IDExLjI0IDYuMjggMTEuMjRNOC43NSAxMS4yNEgxMC41QzEwLjYgMTEuMjQgMTAuNjcgMTEuMTcgMTAuNjcgMTEuMDhWOS41QzEwLjY3IDkuNDIgMTAuNjEgOS4zNCAxMC41IDkuMzRIOC43NUM4LjY3IDkuMzQgOC42IDkuNDEgOC42IDkuNVYxMS4wOEM4LjYgMTEuMTcgOC42NiAxMS4yNCA4Ljc1IDExLjI0TTExLjE5IDExLjI0SDEyLjk2QzEzLjA0IDExLjI0IDEzLjExIDExLjE3IDEzLjExIDExLjA4VjkuNUMxMy4xMSA5LjQyIDEzLjA1IDkuMzQgMTIuOTYgOS4zNEgxMS4xOUMxMS4xMSA5LjM0IDExLjA0IDkuNDEgMTEuMDQgOS41VjExLjA4QzExLjA0IDExLjE3IDExLjExIDExLjI0IDExLjE5IDExLjI0TTYuMjggOUg4LjA0QzguMTIgOSA4LjIgOC45MSA4LjIgOC44MlY3LjI1QzguMiA3LjE2IDguMTMgNy4wOSA4LjA0IDcuMDlINi4yOEM2LjE5IDcuMDkgNi4xMiA3LjE1IDYuMTIgNy4yNVY4LjgyQzYuMTMgOC45MSA2LjE5IDkgNi4yOCA5TTguNzUgOUgxMC41QzEwLjYgOSAxMC42NyA4LjkxIDEwLjY3IDguODJWNy4yNUMxMC42NyA3LjE2IDEwLjYxIDcuMDkgMTAuNSA3LjA5SDguNzVDOC42NyA3LjA5IDguNiA3LjE1IDguNiA3LjI1VjguODJDOC42IDguOTEgOC42NiA5IDguNzUgOU0xMS4xOSA5SDEyLjk2QzEzLjA0IDkgMTMuMTEgOC45MSAxMy4xMSA4LjgyVjcuMjVDMTMuMTEgNy4xNiAxMy4wNCA3LjA5IDEyLjk2IDcuMDlIMTEuMTlDMTEuMTEgNy4wOSAxMS4wNCA3LjE1IDExLjA0IDcuMjVWOC44MkMxMS4wNCA4LjkxIDExLjExIDkgMTEuMTkgOU0xMS4xOSA2LjcySDEyLjk2QzEzLjA0IDYuNzIgMTMuMTEgNi42NSAxMy4xMSA2LjU2VjVDMTMuMTEgNC45IDEzLjA0IDQuODMgMTIuOTYgNC44M0gxMS4xOUMxMS4xMSA0LjgzIDExLjA0IDQuODkgMTEuMDQgNVY2LjU2QzExLjA0IDYuNjQgMTEuMTEgNi43MiAxMS4xOSA2LjcyTTEzLjY1IDExLjI0SDE1LjQxQzE1LjUgMTEuMjQgMTUuNTcgMTEuMTcgMTUuNTcgMTEuMDhWOS41QzE1LjU3IDkuNDIgMTUuNSA5LjM0IDE1LjQxIDkuMzRIMTMuNjVDMTMuNTcgOS4zNCAxMy41IDkuNDEgMTMuNSA5LjVWMTEuMDhDMTMuNSAxMS4xNyAxMy41NyAxMS4yNCAxMy42NSAxMS4yNCIvPjwvc3ZnPg==;fontFamily=Lucida Console;fontSize=8;labelPosition=right;align=left;" parent="79" vertex="1">
                    <mxGeometry x="60" y="100" width="20" height="20" as="geometry"/>
                </mxCell>
                <mxCell id="84" value="Cache" style="shape=image;verticalLabelPosition=bottom;labelBackgroundColor=default;verticalAlign=top;aspect=fixed;imageAspect=0;image=data:image/svg+xml,PHN2ZyB4bWxucz0iaHR0cDovL3d3dy53My5vcmcvMjAwMC9zdmciIHZpZXdCb3g9IjAgMCAyNCAyNCI+PHBhdGggZD0iTTE5LDhMMTUsMTJIMThBNiw2IDAgMCwxIDEyLDE4QzExLDE4IDEwLjAzLDE3Ljc1IDkuMiwxNy4zTDcuNzQsMTguNzZDOC45NywxOS41NCAxMC40MywyMCAxMiwyMEE4LDggMCAwLDAgMjAsMTJIMjNNNiwxMkE2LDYgMCAwLDEgMTIsNkMxMyw2IDEzLjk3LDYuMjUgMTQuOCw2LjdMMTYuMjYsNS4yNEMxNS4wMyw0LjQ2IDEzLjU3LDQgMTIsNEE4LDggMCAwLDAgNCwxMkgxTDUsMTZMOSwxMiIvPjwvc3ZnPg==;fontFamily=Lucida Console;fontSize=10;" parent="79" vertex="1">
                    <mxGeometry x="20" y="20" width="40" height="40" as="geometry"/>
                </mxCell>
                <mxCell id="83" style="edgeStyle=none;html=1;exitX=1;exitY=0.5;exitDx=0;exitDy=0;fontFamily=Lucida Console;fontSize=10;endArrow=classic;endFill=1;entryX=0;entryY=0.5;entryDx=0;entryDy=0;" parent="1" source="103" target="112" edge="1">
                    <mxGeometry relative="1" as="geometry">
                        <mxPoint x="1040" y="520" as="targetPoint"/>
                        <Array as="points">
                            <mxPoint x="1040" y="310"/>
                            <mxPoint x="1040" y="510"/>
                        </Array>
                    </mxGeometry>
                </mxCell>
                <mxCell id="86" value="" style="group;fontFamily=Lucida Console;" parent="1" vertex="1" connectable="0">
                    <mxGeometry x="720" y="460" width="80" height="120" as="geometry"/>
                </mxCell>
                <mxCell id="87" value="" style="rounded=1;whiteSpace=wrap;html=1;shadow=0;labelBackgroundColor=none;labelBorderColor=none;strokeColor=#000000;fontFamily=Lucida Console;fontSize=10;fillColor=default;" parent="86" vertex="1">
                    <mxGeometry width="80" height="120" as="geometry"/>
                </mxCell>
                <mxCell id="88" value="" style="shape=image;verticalLabelPosition=middle;labelBackgroundColor=default;verticalAlign=middle;aspect=fixed;imageAspect=0;image=data:image/svg+xml,PHN2ZyB4bWxucz0iaHR0cDovL3d3dy53My5vcmcvMjAwMC9zdmciIHZpZXdCb3g9IjAgMCAyNCAyNCI+PHBhdGggZD0iTTIxLjgxIDEwLjI1QzIxLjc1IDEwLjIxIDIxLjI1IDkuODIgMjAuMTcgOS44MkMxOS44OSA5LjgyIDE5LjYxIDkuODUgMTkuMzMgOS45QzE5LjEyIDguNSAxNy45NSA3Ljc5IDE3LjkgNy43NkwxNy42MSA3LjU5TDE3LjQzIDcuODZDMTcuMTkgOC4yMiAxNyA4LjYzIDE2LjkyIDkuMDVDMTYuNzIgOS44NSAxNi44NCAxMC42MSAxNy4yNSAxMS4yNkMxNi43NiAxMS41NCAxNS45NiAxMS42MSAxNS43OSAxMS42MUgyLjYyQzIuMjggMTEuNjEgMiAxMS44OSAyIDEyLjI0QzIgMTMuMzkgMi4xOCAxNC41NCAyLjU4IDE1LjYyQzMuMDMgMTYuODEgMy43MSAxNy42OSA0LjU4IDE4LjIzQzUuNTYgMTguODMgNy4xNyAxOS4xNyA5IDE5LjE3QzkuNzkgMTkuMTcgMTAuNjEgMTkuMSAxMS40MiAxOC45NUMxMi41NCAxOC43NSAxMy42MiAxOC4zNiAxNC42MSAxNy43OUMxNS40MyAxNy4zMiAxNi4xNiAxNi43MiAxNi43OCAxNkMxNy44MyAxNC44MyAxOC40NSAxMy41IDE4LjkgMTIuMzVIMTkuMDlDMjAuMjMgMTIuMzUgMjAuOTQgMTEuODkgMjEuMzMgMTEuNUMyMS41OSAxMS4yNiAyMS43OCAxMC45NyAyMS45MiAxMC42M0wyMiAxMC4zOUwyMS44MSAxMC4yNU0zLjg1IDExLjI0SDUuNjFDNS42OSAxMS4yNCA1Ljc3IDExLjE3IDUuNzcgMTEuMDhWOS41QzUuNzcgOS40MiA1LjcgOS4zNCA1LjYxIDkuMzRIMy44NUMzLjc2IDkuMzQgMy42OSA5LjQxIDMuNjkgOS41VjExLjA4QzMuNyAxMS4xNyAzLjc2IDExLjI0IDMuODUgMTEuMjRNNi4yOCAxMS4yNEg4LjA0QzguMTIgMTEuMjQgOC4yIDExLjE3IDguMiAxMS4wOFY5LjVDOC4yIDkuNDIgOC4xMyA5LjM0IDguMDQgOS4zNEg2LjI4QzYuMTkgOS4zNCA2LjEyIDkuNDEgNi4xMiA5LjVWMTEuMDhDNi4xMyAxMS4xNyA2LjE5IDExLjI0IDYuMjggMTEuMjRNOC43NSAxMS4yNEgxMC41QzEwLjYgMTEuMjQgMTAuNjcgMTEuMTcgMTAuNjcgMTEuMDhWOS41QzEwLjY3IDkuNDIgMTAuNjEgOS4zNCAxMC41IDkuMzRIOC43NUM4LjY3IDkuMzQgOC42IDkuNDEgOC42IDkuNVYxMS4wOEM4LjYgMTEuMTcgOC42NiAxMS4yNCA4Ljc1IDExLjI0TTExLjE5IDExLjI0SDEyLjk2QzEzLjA0IDExLjI0IDEzLjExIDExLjE3IDEzLjExIDExLjA4VjkuNUMxMy4xMSA5LjQyIDEzLjA1IDkuMzQgMTIuOTYgOS4zNEgxMS4xOUMxMS4xMSA5LjM0IDExLjA0IDkuNDEgMTEuMDQgOS41VjExLjA4QzExLjA0IDExLjE3IDExLjExIDExLjI0IDExLjE5IDExLjI0TTYuMjggOUg4LjA0QzguMTIgOSA4LjIgOC45MSA4LjIgOC44MlY3LjI1QzguMiA3LjE2IDguMTMgNy4wOSA4LjA0IDcuMDlINi4yOEM2LjE5IDcuMDkgNi4xMiA3LjE1IDYuMTIgNy4yNVY4LjgyQzYuMTMgOC45MSA2LjE5IDkgNi4yOCA5TTguNzUgOUgxMC41QzEwLjYgOSAxMC42NyA4LjkxIDEwLjY3IDguODJWNy4yNUMxMC42NyA3LjE2IDEwLjYxIDcuMDkgMTAuNSA3LjA5SDguNzVDOC42NyA3LjA5IDguNiA3LjE1IDguNiA3LjI1VjguODJDOC42IDguOTEgOC42NiA5IDguNzUgOU0xMS4xOSA5SDEyLjk2QzEzLjA0IDkgMTMuMTEgOC45MSAxMy4xMSA4LjgyVjcuMjVDMTMuMTEgNy4xNiAxMy4wNCA3LjA5IDEyLjk2IDcuMDlIMTEuMTlDMTEuMTEgNy4wOSAxMS4wNCA3LjE1IDExLjA0IDcuMjVWOC44MkMxMS4wNCA4LjkxIDExLjExIDkgMTEuMTkgOU0xMS4xOSA2LjcySDEyLjk2QzEzLjA0IDYuNzIgMTMuMTEgNi42NSAxMy4xMSA2LjU2VjVDMTMuMTEgNC45IDEzLjA0IDQuODMgMTIuOTYgNC44M0gxMS4xOUMxMS4xMSA0LjgzIDExLjA0IDQuODkgMTEuMDQgNVY2LjU2QzExLjA0IDYuNjQgMTEuMTEgNi43MiAxMS4xOSA2LjcyTTEzLjY1IDExLjI0SDE1LjQxQzE1LjUgMTEuMjQgMTUuNTcgMTEuMTcgMTUuNTcgMTEuMDhWOS41QzE1LjU3IDkuNDIgMTUuNSA5LjM0IDE1LjQxIDkuMzRIMTMuNjVDMTMuNTcgOS4zNCAxMy41IDkuNDEgMTMuNSA5LjVWMTEuMDhDMTMuNSAxMS4xNyAxMy41NyAxMS4yNCAxMy42NSAxMS4yNCIvPjwvc3ZnPg==;fontFamily=Lucida Console;fontSize=8;labelPosition=right;align=left;" parent="86" vertex="1">
                    <mxGeometry x="60" y="100" width="20" height="20" as="geometry"/>
                </mxCell>
                <mxCell id="85" value="Queue" style="shape=image;verticalLabelPosition=bottom;labelBackgroundColor=default;verticalAlign=top;aspect=fixed;imageAspect=0;image=data:image/svg+xml,PHN2ZyB4bWxucz0iaHR0cDovL3d3dy53My5vcmcvMjAwMC9zdmciIHZpZXdCb3g9IjAgMCAyNCAyNCI+PHBhdGggZD0iTTYgNkgxOFY4SDZWNk02IDEwLjVIMThWMTIuNUg2VjEwLjVNNiAxNUgxOFYxN0g2VjE1TTkgMTlIMTVMMTIgMjJMOSAxOU05IDJIMTVMMTIgNUw5IDJaIi8+PC9zdmc+;fontFamily=Lucida Console;fontSize=10;" parent="86" vertex="1">
                    <mxGeometry x="20" y="20" width="40" height="40" as="geometry"/>
                </mxCell>
                <mxCell id="90" style="edgeStyle=none;html=1;exitX=0.5;exitY=1;exitDx=0;exitDy=0;entryX=0.5;entryY=0;entryDx=0;entryDy=0;fontFamily=Lucida Console;fontSize=10;endArrow=classic;endFill=1;" parent="1" source="106" target="107" edge="1">
                    <mxGeometry relative="1" as="geometry">
                        <Array as="points"/>
                    </mxGeometry>
                </mxCell>
                <mxCell id="92" value="" style="group;fontFamily=Lucida Console;" parent="1" vertex="1" connectable="0">
                    <mxGeometry x="720" y="660" width="80" height="120" as="geometry"/>
                </mxCell>
                <mxCell id="93" value="" style="rounded=1;whiteSpace=wrap;html=1;shadow=0;labelBackgroundColor=none;labelBorderColor=none;strokeColor=#000000;fontFamily=Lucida Console;fontSize=10;fillColor=default;" parent="92" vertex="1">
                    <mxGeometry width="80" height="120" as="geometry"/>
                </mxCell>
                <mxCell id="94" value="" style="shape=image;verticalLabelPosition=middle;labelBackgroundColor=default;verticalAlign=middle;aspect=fixed;imageAspect=0;image=data:image/svg+xml,PHN2ZyB4bWxucz0iaHR0cDovL3d3dy53My5vcmcvMjAwMC9zdmciIHZpZXdCb3g9IjAgMCAyNCAyNCI+PHBhdGggZD0iTTIxLjgxIDEwLjI1QzIxLjc1IDEwLjIxIDIxLjI1IDkuODIgMjAuMTcgOS44MkMxOS44OSA5LjgyIDE5LjYxIDkuODUgMTkuMzMgOS45QzE5LjEyIDguNSAxNy45NSA3Ljc5IDE3LjkgNy43NkwxNy42MSA3LjU5TDE3LjQzIDcuODZDMTcuMTkgOC4yMiAxNyA4LjYzIDE2LjkyIDkuMDVDMTYuNzIgOS44NSAxNi44NCAxMC42MSAxNy4yNSAxMS4yNkMxNi43NiAxMS41NCAxNS45NiAxMS42MSAxNS43OSAxMS42MUgyLjYyQzIuMjggMTEuNjEgMiAxMS44OSAyIDEyLjI0QzIgMTMuMzkgMi4xOCAxNC41NCAyLjU4IDE1LjYyQzMuMDMgMTYuODEgMy43MSAxNy42OSA0LjU4IDE4LjIzQzUuNTYgMTguODMgNy4xNyAxOS4xNyA5IDE5LjE3QzkuNzkgMTkuMTcgMTAuNjEgMTkuMSAxMS40MiAxOC45NUMxMi41NCAxOC43NSAxMy42MiAxOC4zNiAxNC42MSAxNy43OUMxNS40MyAxNy4zMiAxNi4xNiAxNi43MiAxNi43OCAxNkMxNy44MyAxNC44MyAxOC40NSAxMy41IDE4LjkgMTIuMzVIMTkuMDlDMjAuMjMgMTIuMzUgMjAuOTQgMTEuODkgMjEuMzMgMTEuNUMyMS41OSAxMS4yNiAyMS43OCAxMC45NyAyMS45MiAxMC42M0wyMiAxMC4zOUwyMS44MSAxMC4yNU0zLjg1IDExLjI0SDUuNjFDNS42OSAxMS4yNCA1Ljc3IDExLjE3IDUuNzcgMTEuMDhWOS41QzUuNzcgOS40MiA1LjcgOS4zNCA1LjYxIDkuMzRIMy44NUMzLjc2IDkuMzQgMy42OSA5LjQxIDMuNjkgOS41VjExLjA4QzMuNyAxMS4xNyAzLjc2IDExLjI0IDMuODUgMTEuMjRNNi4yOCAxMS4yNEg4LjA0QzguMTIgMTEuMjQgOC4yIDExLjE3IDguMiAxMS4wOFY5LjVDOC4yIDkuNDIgOC4xMyA5LjM0IDguMDQgOS4zNEg2LjI4QzYuMTkgOS4zNCA2LjEyIDkuNDEgNi4xMiA5LjVWMTEuMDhDNi4xMyAxMS4xNyA2LjE5IDExLjI0IDYuMjggMTEuMjRNOC43NSAxMS4yNEgxMC41QzEwLjYgMTEuMjQgMTAuNjcgMTEuMTcgMTAuNjcgMTEuMDhWOS41QzEwLjY3IDkuNDIgMTAuNjEgOS4zNCAxMC41IDkuMzRIOC43NUM4LjY3IDkuMzQgOC42IDkuNDEgOC42IDkuNVYxMS4wOEM4LjYgMTEuMTcgOC42NiAxMS4yNCA4Ljc1IDExLjI0TTExLjE5IDExLjI0SDEyLjk2QzEzLjA0IDExLjI0IDEzLjExIDExLjE3IDEzLjExIDExLjA4VjkuNUMxMy4xMSA5LjQyIDEzLjA1IDkuMzQgMTIuOTYgOS4zNEgxMS4xOUMxMS4xMSA5LjM0IDExLjA0IDkuNDEgMTEuMDQgOS41VjExLjA4QzExLjA0IDExLjE3IDExLjExIDExLjI0IDExLjE5IDExLjI0TTYuMjggOUg4LjA0QzguMTIgOSA4LjIgOC45MSA4LjIgOC44MlY3LjI1QzguMiA3LjE2IDguMTMgNy4wOSA4LjA0IDcuMDlINi4yOEM2LjE5IDcuMDkgNi4xMiA3LjE1IDYuMTIgNy4yNVY4LjgyQzYuMTMgOC45MSA2LjE5IDkgNi4yOCA5TTguNzUgOUgxMC41QzEwLjYgOSAxMC42NyA4LjkxIDEwLjY3IDguODJWNy4yNUMxMC42NyA3LjE2IDEwLjYxIDcuMDkgMTAuNSA3LjA5SDguNzVDOC42NyA3LjA5IDguNiA3LjE1IDguNiA3LjI1VjguODJDOC42IDguOTEgOC42NiA5IDguNzUgOU0xMS4xOSA5SDEyLjk2QzEzLjA0IDkgMTMuMTEgOC45MSAxMy4xMSA4LjgyVjcuMjVDMTMuMTEgNy4xNiAxMy4wNCA3LjA5IDEyLjk2IDcuMDlIMTEuMTlDMTEuMTEgNy4wOSAxMS4wNCA3LjE1IDExLjA0IDcuMjVWOC44MkMxMS4wNCA4LjkxIDExLjExIDkgMTEuMTkgOU0xMS4xOSA2LjcySDEyLjk2QzEzLjA0IDYuNzIgMTMuMTEgNi42NSAxMy4xMSA2LjU2VjVDMTMuMTEgNC45IDEzLjA0IDQuODMgMTIuOTYgNC44M0gxMS4xOUMxMS4xMSA0LjgzIDExLjA0IDQuODkgMTEuMDQgNVY2LjU2QzExLjA0IDYuNjQgMTEuMTEgNi43MiAxMS4xOSA2LjcyTTEzLjY1IDExLjI0SDE1LjQxQzE1LjUgMTEuMjQgMTUuNTcgMTEuMTcgMTUuNTcgMTEuMDhWOS41QzE1LjU3IDkuNDIgMTUuNSA5LjM0IDE1LjQxIDkuMzRIMTMuNjVDMTMuNTcgOS4zNCAxMy41IDkuNDEgMTMuNSA5LjVWMTEuMDhDMTMuNSAxMS4xNyAxMy41NyAxMS4yNCAxMy42NSAxMS4yNCIvPjwvc3ZnPg==;fontFamily=Lucida Console;fontSize=8;labelPosition=right;align=left;" parent="92" vertex="1">
                    <mxGeometry x="60" y="100" width="20" height="20" as="geometry"/>
                </mxCell>
                <mxCell id="91" value="Worker" style="shape=image;verticalLabelPosition=bottom;labelBackgroundColor=default;verticalAlign=top;aspect=fixed;imageAspect=0;image=data:image/svg+xml,PHN2ZyB4bWxucz0iaHR0cDovL3d3dy53My5vcmcvMjAwMC9zdmciIHZpZXdCb3g9IjAgMCAyNCAyNCI+PHBhdGggZD0iTTE3LjI1LDEyQzE3LjI1LDEyLjIzIDE3LjIzLDEyLjQ2IDE3LjIsMTIuNjhMMTguNjgsMTMuODRDMTguODEsMTMuOTUgMTguODUsMTQuMTMgMTguNzYsMTQuMjlMMTcuMzYsMTYuNzFDMTcuMjcsMTYuODYgMTcuMDksMTYuOTIgMTYuOTMsMTYuODZMMTUuMTksMTYuMTZDMTQuODMsMTYuNDQgMTQuNDMsMTYuNjcgMTQsMTYuODVMMTMuNzUsMTguN0MxMy43MiwxOC44NyAxMy41NywxOSAxMy40LDE5SDEwLjZDMTAuNDMsMTkgMTAuMjgsMTguODcgMTAuMjUsMTguN0wxMCwxNi44NUM5LjU2LDE2LjY3IDkuMTcsMTYuNDQgOC44MSwxNi4xNkw3LjA3LDE2Ljg2QzYuOTEsMTYuOTIgNi43MywxNi44NiA2LjY0LDE2LjcxTDUuMjQsMTQuMjlDNS4xNSwxNC4xMyA1LjE5LDEzLjk1IDUuMzIsMTMuODRMNi44LDEyLjY4QzYuNzcsMTIuNDYgNi43NSwxMi4yMyA2Ljc1LDEyQzYuNzUsMTEuNzcgNi43NywxMS41NCA2LjgsMTEuMzJMNS4zMiwxMC4xNkM1LjE5LDEwLjA1IDUuMTUsOS44NiA1LjI0LDkuNzFMNi42NCw3LjI5QzYuNzMsNy4xMyA2LjkxLDcuMDcgNy4wNyw3LjEzTDguODEsNy44NEM5LjE3LDcuNTYgOS41Niw3LjMyIDEwLDcuMTVMMTAuMjUsNS4yOUMxMC4yOCw1LjEzIDEwLjQzLDUgMTAuNiw1SDEzLjRDMTMuNTcsNSAxMy43Miw1LjEzIDEzLjc1LDUuMjlMMTQsNy4xNUMxNC40Myw3LjMyIDE0LjgzLDcuNTYgMTUuMTksNy44NEwxNi45Myw3LjEzQzE3LjA5LDcuMDcgMTcuMjcsNy4xMyAxNy4zNiw3LjI5TDE4Ljc2LDkuNzFDMTguODUsOS44NiAxOC44MSwxMC4wNSAxOC42OCwxMC4xNkwxNy4yLDExLjMyQzE3LjIzLDExLjU0IDE3LjI1LDExLjc3IDE3LjI1LDEyTTE5LDNINUMzLjg5LDMgMywzLjg5IDMsNVYxOUEyLDIgMCAwLDAgNSwyMUgxOUEyLDIgMCAwLDAgMjEsMTlWNUMyMSwzLjg5IDIwLjEsMyAxOSwzTTEyLDEwQzEwLjg5LDEwIDEwLDEwLjg5IDEwLDEyQTIsMiAwIDAsMCAxMiwxNEEyLDIgMCAwLDAgMTQsMTJDMTQsMTAuODkgMTMuMSwxMCAxMiwxMFoiLz48L3N2Zz4=;fontSize=10;fontFamily=Lucida Console;" parent="92" vertex="1">
                    <mxGeometry x="20.5" y="20" width="39" height="39" as="geometry"/>
                </mxCell>
                <mxCell id="96" style="edgeStyle=none;html=1;exitX=1;exitY=0.5;exitDx=0;exitDy=0;entryX=0;entryY=0.5;entryDx=0;entryDy=0;fontFamily=Lucida Console;fontSize=10;endArrow=classic;endFill=1;" parent="1" source="110" target="105" edge="1">
                    <mxGeometry relative="1" as="geometry">
                        <Array as="points">
                            <mxPoint x="880" y="710"/>
                            <mxPoint x="880" y="530"/>
                        </Array>
                    </mxGeometry>
                </mxCell>
                <mxCell id="97" style="edgeStyle=none;html=1;exitX=1;exitY=0.5;exitDx=0;exitDy=0;entryX=0;entryY=0.5;entryDx=0;entryDy=0;fontFamily=Lucida Console;fontSize=10;endArrow=classic;endFill=1;" parent="1" source="111" target="113" edge="1">
                    <mxGeometry relative="1" as="geometry">
                        <mxPoint x="1039.9999999999998" y="520" as="targetPoint"/>
                        <Array as="points">
                            <mxPoint x="1040" y="730"/>
                            <mxPoint x="1040" y="530"/>
                        </Array>
                    </mxGeometry>
                </mxCell>
                <mxCell id="98" style="edgeStyle=none;html=1;exitX=0.5;exitY=0;exitDx=0;exitDy=0;entryX=0.5;entryY=1;entryDx=0;entryDy=0;fontFamily=Lucida Console;fontSize=10;endArrow=classic;endFill=1;" parent="1" source="109" target="108" edge="1">
                    <mxGeometry relative="1" as="geometry"/>
                </mxCell>
                <mxCell id="102" value="" style="ellipse;whiteSpace=wrap;html=1;aspect=fixed;shadow=0;labelBackgroundColor=none;labelBorderColor=none;strokeColor=#000000;fontFamily=Lucida Console;fontSize=10;fillColor=default;" parent="1" vertex="1">
                    <mxGeometry x="795" y="325" width="10" height="10" as="geometry"/>
                </mxCell>
                <mxCell id="103" value="" style="ellipse;whiteSpace=wrap;html=1;aspect=fixed;shadow=0;labelBackgroundColor=none;labelBorderColor=none;strokeColor=#000000;fontFamily=Lucida Console;fontSize=10;fillColor=default;" parent="1" vertex="1">
                    <mxGeometry x="795" y="305" width="10" height="10" as="geometry"/>
                </mxCell>
                <mxCell id="104" value="" style="ellipse;whiteSpace=wrap;html=1;aspect=fixed;shadow=0;labelBackgroundColor=none;labelBorderColor=none;strokeColor=#000000;fontFamily=Lucida Console;fontSize=10;fillColor=default;" parent="1" vertex="1">
                    <mxGeometry x="915" y="505" width="10" height="10" as="geometry"/>
                </mxCell>
                <mxCell id="105" value="" style="ellipse;whiteSpace=wrap;html=1;aspect=fixed;shadow=0;labelBackgroundColor=none;labelBorderColor=none;strokeColor=#000000;fontFamily=Lucida Console;fontSize=10;fillColor=default;" parent="1" vertex="1">
                    <mxGeometry x="915" y="525" width="10" height="10" as="geometry"/>
                </mxCell>
                <mxCell id="106" value="" style="ellipse;whiteSpace=wrap;html=1;aspect=fixed;shadow=0;labelBackgroundColor=none;labelBorderColor=none;strokeColor=#000000;fontFamily=Lucida Console;fontSize=10;fillColor=default;" parent="1" vertex="1">
                    <mxGeometry x="755" y="375" width="10" height="10" as="geometry"/>
                </mxCell>
                <mxCell id="107" value="" style="ellipse;whiteSpace=wrap;html=1;aspect=fixed;shadow=0;labelBackgroundColor=none;labelBorderColor=none;strokeColor=#000000;fontFamily=Lucida Console;fontSize=10;fillColor=default;" parent="1" vertex="1">
                    <mxGeometry x="755" y="455" width="10" height="10" as="geometry"/>
                </mxCell>
                <mxCell id="108" value="" style="ellipse;whiteSpace=wrap;html=1;aspect=fixed;shadow=0;labelBackgroundColor=none;labelBorderColor=none;strokeColor=#000000;fontFamily=Lucida Console;fontSize=10;fillColor=default;" parent="1" vertex="1">
                    <mxGeometry x="755" y="575" width="10" height="10" as="geometry"/>
                </mxCell>
                <mxCell id="109" value="" style="ellipse;whiteSpace=wrap;html=1;aspect=fixed;shadow=0;labelBackgroundColor=none;labelBorderColor=none;strokeColor=#000000;fontFamily=Lucida Console;fontSize=10;fillColor=default;" parent="1" vertex="1">
                    <mxGeometry x="755" y="655" width="10" height="10" as="geometry"/>
                </mxCell>
                <mxCell id="110" value="" style="ellipse;whiteSpace=wrap;html=1;aspect=fixed;shadow=0;labelBackgroundColor=none;labelBorderColor=none;strokeColor=#000000;fontFamily=Lucida Console;fontSize=10;fillColor=default;" parent="1" vertex="1">
                    <mxGeometry x="795" y="705" width="10" height="10" as="geometry"/>
                </mxCell>
                <mxCell id="111" value="" style="ellipse;whiteSpace=wrap;html=1;aspect=fixed;shadow=0;labelBackgroundColor=none;labelBorderColor=none;strokeColor=#000000;fontFamily=Lucida Console;fontSize=10;fillColor=default;" parent="1" vertex="1">
                    <mxGeometry x="795" y="725" width="10" height="10" as="geometry"/>
                </mxCell>
                <mxCell id="112" value="" style="ellipse;whiteSpace=wrap;html=1;aspect=fixed;shadow=0;labelBackgroundColor=none;labelBorderColor=none;strokeColor=#000000;fontFamily=Lucida Console;fontSize=10;fillColor=default;" parent="1" vertex="1">
                    <mxGeometry x="1075" y="505" width="10" height="10" as="geometry"/>
                </mxCell>
                <mxCell id="113" value="" style="ellipse;whiteSpace=wrap;html=1;aspect=fixed;shadow=0;labelBackgroundColor=none;labelBorderColor=none;strokeColor=#000000;fontFamily=Lucida Console;fontSize=10;fillColor=default;" parent="1" vertex="1">
                    <mxGeometry x="1075" y="525" width="10" height="10" as="geometry"/>
                </mxCell>
                <mxCell id="114" value="" style="ellipse;whiteSpace=wrap;html=1;aspect=fixed;shadow=0;labelBackgroundColor=none;labelBorderColor=none;strokeColor=#000000;fontFamily=Lucida Console;fontSize=10;fillColor=default;" parent="1" vertex="1">
                    <mxGeometry x="715" y="305" width="10" height="10" as="geometry"/>
                </mxCell>
                <mxCell id="115" value="" style="ellipse;whiteSpace=wrap;html=1;aspect=fixed;shadow=0;labelBackgroundColor=none;labelBorderColor=none;strokeColor=#000000;fontFamily=Lucida Console;fontSize=10;fillColor=default;" parent="1" vertex="1">
                    <mxGeometry x="515" y="305" width="10" height="10" as="geometry"/>
                </mxCell>
                <mxCell id="116" value="" style="ellipse;whiteSpace=wrap;html=1;aspect=fixed;shadow=0;labelBackgroundColor=none;labelBorderColor=none;strokeColor=#000000;fontFamily=Lucida Console;fontSize=10;fillColor=default;" parent="1" vertex="1">
                    <mxGeometry x="435" y="315" width="10" height="10" as="geometry"/>
                </mxCell>
                <mxCell id="117" value="" style="ellipse;whiteSpace=wrap;html=1;aspect=fixed;shadow=0;labelBackgroundColor=none;labelBorderColor=none;strokeColor=#000000;fontFamily=Lucida Console;fontSize=10;fillColor=default;" parent="1" vertex="1">
                    <mxGeometry x="315" y="255" width="10" height="10" as="geometry"/>
                </mxCell>
                <mxCell id="118" value="" style="ellipse;whiteSpace=wrap;html=1;aspect=fixed;shadow=0;labelBackgroundColor=none;labelBorderColor=none;strokeColor=#000000;fontFamily=Lucida Console;fontSize=10;fillColor=default;" parent="1" vertex="1">
                    <mxGeometry x="235" y="255" width="10" height="10" as="geometry"/>
                </mxCell>
                <mxCell id="119" value="" style="ellipse;whiteSpace=wrap;html=1;aspect=fixed;shadow=0;labelBackgroundColor=none;labelBorderColor=none;strokeColor=#000000;fontFamily=Lucida Console;fontSize=10;fillColor=default;" parent="1" vertex="1">
                    <mxGeometry x="75" y="195" width="10" height="10" as="geometry"/>
                </mxCell>
                <mxCell id="121" value="cashflow-db" style="shape=image;verticalLabelPosition=middle;labelBackgroundColor=default;verticalAlign=middle;aspect=fixed;imageAspect=0;image=data:image/svg+xml,PHN2ZyB4bWxucz0iaHR0cDovL3d3dy53My5vcmcvMjAwMC9zdmciIHZpZXdCb3g9IjAgMCAyNCAyNCI+PHBhdGggZD0iTTE3LDNBMiwyIDAgMCwxIDE5LDVWMTVBMiwyIDAgMCwxIDE3LDE3SDEzVjE5SDE0QTEsMSAwIDAsMSAxNSwyMEgyMlYyMkgxNUExLDEgMCAwLDEgMTQsMjNIMTBBMSwxIDAgMCwxIDksMjJIMlYyMEg5QTEsMSAwIDAsMSAxMCwxOUgxMVYxN0g3QzUuODksMTcgNSwxNi4xIDUsMTVWNUEyLDIgMCAwLDEgNywzSDE3WiIvPjwvc3ZnPg==;labelPosition=right;align=left;spacingLeft=5;fontSize=10;fontFamily=Lucida Console;" vertex="1" parent="1">
                    <mxGeometry x="870" y="350" width="20" height="20" as="geometry"/>
                </mxCell>
                <mxCell id="122" value="cashflow-db" style="shape=image;verticalLabelPosition=middle;labelBackgroundColor=default;verticalAlign=middle;aspect=fixed;imageAspect=0;image=data:image/svg+xml,PHN2ZyB4bWxucz0iaHR0cDovL3d3dy53My5vcmcvMjAwMC9zdmciIHZpZXdCb3g9IjAgMCAyNCAyNCI+PHBhdGggZD0iTTE3LDNBMiwyIDAgMCwxIDE5LDVWMTVBMiwyIDAgMCwxIDE3LDE3SDEzVjE5SDE0QTEsMSAwIDAsMSAxNSwyMEgyMlYyMkgxNUExLDEgMCAwLDEgMTQsMjNIMTBBMSwxIDAgMCwxIDksMjJIMlYyMEg5QTEsMSAwIDAsMSAxMCwxOUgxMVYxN0g3QzUuODksMTcgNSwxNi4xIDUsMTVWNUEyLDIgMCAwLDEgNywzSDE3WiIvPjwvc3ZnPg==;labelPosition=right;align=left;spacingLeft=5;fontSize=10;fontFamily=Lucida Console;" vertex="1" parent="1">
                    <mxGeometry x="870" y="670" width="20" height="20" as="geometry"/>
                </mxCell>
                <mxCell id="123" value="cashflow-cache" style="shape=image;verticalLabelPosition=middle;labelBackgroundColor=default;verticalAlign=middle;aspect=fixed;imageAspect=0;image=data:image/svg+xml,PHN2ZyB4bWxucz0iaHR0cDovL3d3dy53My5vcmcvMjAwMC9zdmciIHZpZXdCb3g9IjAgMCAyNCAyNCI+PHBhdGggZD0iTTE3LDNBMiwyIDAgMCwxIDE5LDVWMTVBMiwyIDAgMCwxIDE3LDE3SDEzVjE5SDE0QTEsMSAwIDAsMSAxNSwyMEgyMlYyMkgxNUExLDEgMCAwLDEgMTQsMjNIMTBBMSwxIDAgMCwxIDksMjJIMlYyMEg5QTEsMSAwIDAsMSAxMCwxOUgxMVYxN0g3QzUuODksMTcgNSwxNi4xIDUsMTVWNUEyLDIgMCAwLDEgNywzSDE3WiIvPjwvc3ZnPg==;labelPosition=right;align=left;spacingLeft=5;fontSize=10;fontFamily=Lucida Console;" vertex="1" parent="1">
                    <mxGeometry x="1030" y="350" width="20" height="20" as="geometry"/>
                </mxCell>
                <mxCell id="124" value="cashflow-cache" style="shape=image;verticalLabelPosition=middle;labelBackgroundColor=default;verticalAlign=middle;aspect=fixed;imageAspect=0;image=data:image/svg+xml,PHN2ZyB4bWxucz0iaHR0cDovL3d3dy53My5vcmcvMjAwMC9zdmciIHZpZXdCb3g9IjAgMCAyNCAyNCI+PHBhdGggZD0iTTE3LDNBMiwyIDAgMCwxIDE5LDVWMTVBMiwyIDAgMCwxIDE3LDE3SDEzVjE5SDE0QTEsMSAwIDAsMSAxNSwyMEgyMlYyMkgxNUExLDEgMCAwLDEgMTQsMjNIMTBBMSwxIDAgMCwxIDksMjJIMlYyMEg5QTEsMSAwIDAsMSAxMCwxOUgxMVYxN0g3QzUuODksMTcgNSwxNi4xIDUsMTVWNUEyLDIgMCAwLDEgNywzSDE3WiIvPjwvc3ZnPg==;labelPosition=right;align=left;spacingLeft=5;fontSize=10;fontFamily=Lucida Console;" vertex="1" parent="1">
                    <mxGeometry x="1030" y="670" width="20" height="20" as="geometry"/>
                </mxCell>
                <mxCell id="125" style="edgeStyle=none;html=1;exitX=1;exitY=0.5;exitDx=0;exitDy=0;entryX=0;entryY=0.5;entryDx=0;entryDy=0;fontFamily=Lucida Console;fontSize=10;" edge="1" parent="1" source="127" target="126">
                    <mxGeometry relative="1" as="geometry">
                        <mxPoint x="520" y="270" as="sourcePoint"/>
                        <Array as="points">
                            <mxPoint x="560" y="330"/>
                            <mxPoint x="560" y="730"/>
                        </Array>
                    </mxGeometry>
                </mxCell>
                <mxCell id="126" value="" style="ellipse;whiteSpace=wrap;html=1;aspect=fixed;shadow=0;labelBackgroundColor=none;labelBorderColor=none;strokeColor=#000000;fontFamily=Lucida Console;fontSize=10;fillColor=default;" vertex="1" parent="1">
                    <mxGeometry x="715" y="725" width="10" height="10" as="geometry"/>
                </mxCell>
                <mxCell id="127" value="" style="ellipse;whiteSpace=wrap;html=1;aspect=fixed;shadow=0;labelBackgroundColor=none;labelBorderColor=none;strokeColor=#000000;fontFamily=Lucida Console;fontSize=10;fillColor=default;" vertex="1" parent="1">
                    <mxGeometry x="515" y="325" width="10" height="10" as="geometry"/>
                </mxCell>
                <mxCell id="130" value="" style="edgeStyle=none;html=1;exitX=1;exitY=0.5;exitDx=0;exitDy=0;entryX=0;entryY=0.5;entryDx=0;entryDy=0;fontFamily=Lucida Console;fontSize=10;endArrow=none;" edge="1" parent="1" source="115" target="129">
                    <mxGeometry relative="1" as="geometry">
                        <mxPoint x="525" y="310" as="sourcePoint"/>
                        <Array as="points"/>
                        <mxPoint x="680" y="310" as="targetPoint"/>
                    </mxGeometry>
                </mxCell>
                <mxCell id="129" value="cashflow-web" style="shape=image;verticalLabelPosition=middle;labelBackgroundColor=default;verticalAlign=middle;aspect=fixed;imageAspect=0;image=data:image/svg+xml,PHN2ZyB4bWxucz0iaHR0cDovL3d3dy53My5vcmcvMjAwMC9zdmciIHZpZXdCb3g9IjAgMCAyNCAyNCI+PHBhdGggZD0iTTE3LDNBMiwyIDAgMCwxIDE5LDVWMTVBMiwyIDAgMCwxIDE3LDE3SDEzVjE5SDE0QTEsMSAwIDAsMSAxNSwyMEgyMlYyMkgxNUExLDEgMCAwLDEgMTQsMjNIMTBBMSwxIDAgMCwxIDksMjJIMlYyMEg5QTEsMSAwIDAsMSAxMCwxOUgxMVYxN0g3QzUuODksMTcgNSwxNi4xIDUsMTVWNUEyLDIgMCAwLDEgNywzSDE3WiIvPjwvc3ZnPg==;labelPosition=right;align=left;spacingLeft=5;fontSize=10;fontFamily=Lucida Console;" vertex="1" parent="1">
                    <mxGeometry x="550" y="300" width="20" height="20" as="geometry"/>
                </mxCell>
                <mxCell id="131" value="cashflow-schedule" style="shape=image;verticalLabelPosition=middle;labelBackgroundColor=default;verticalAlign=middle;aspect=fixed;imageAspect=0;image=data:image/svg+xml,PHN2ZyB4bWxucz0iaHR0cDovL3d3dy53My5vcmcvMjAwMC9zdmciIHZpZXdCb3g9IjAgMCAyNCAyNCI+PHBhdGggZD0iTTE3LDNBMiwyIDAgMCwxIDE5LDVWMTVBMiwyIDAgMCwxIDE3LDE3SDEzVjE5SDE0QTEsMSAwIDAsMSAxNSwyMEgyMlYyMkgxNUExLDEgMCAwLDEgMTQsMjNIMTBBMSwxIDAgMCwxIDksMjJIMlYyMEg5QTEsMSAwIDAsMSAxMCwxOUgxMVYxN0g3QzUuODksMTcgNSwxNi4xIDUsMTVWNUEyLDIgMCAwLDEgNywzSDE3WiIvPjwvc3ZnPg==;labelPosition=right;align=left;spacingLeft=5;fontSize=10;fontFamily=Lucida Console;" vertex="1" parent="1">
                    <mxGeometry x="550" y="350" width="20" height="20" as="geometry"/>
                </mxCell>
                <mxCell id="133" value="cashflow-queue" style="shape=image;verticalLabelPosition=middle;labelBackgroundColor=default;verticalAlign=middle;aspect=fixed;imageAspect=0;image=data:image/svg+xml,PHN2ZyB4bWxucz0iaHR0cDovL3d3dy53My5vcmcvMjAwMC9zdmciIHZpZXdCb3g9IjAgMCAyNCAyNCI+PHBhdGggZD0iTTE3LDNBMiwyIDAgMCwxIDE5LDVWMTVBMiwyIDAgMCwxIDE3LDE3SDEzVjE5SDE0QTEsMSAwIDAsMSAxNSwyMEgyMlYyMkgxNUExLDEgMCAwLDEgMTQsMjNIMTBBMSwxIDAgMCwxIDksMjJIMlYyMEg5QTEsMSAwIDAsMSAxMCwxOUgxMVYxN0g3QzUuODksMTcgNSwxNi4xIDUsMTVWNUEyLDIgMCAwLDEgNywzSDE3WiIvPjwvc3ZnPg==;labelPosition=right;align=left;spacingLeft=5;fontSize=10;fontFamily=Lucida Console;" vertex="1" parent="1">
                    <mxGeometry x="750" y="410" width="20" height="20" as="geometry"/>
                </mxCell>
                <mxCell id="134" value="cashflow-queue" style="shape=image;verticalLabelPosition=middle;labelBackgroundColor=default;verticalAlign=middle;aspect=fixed;imageAspect=0;image=data:image/svg+xml,PHN2ZyB4bWxucz0iaHR0cDovL3d3dy53My5vcmcvMjAwMC9zdmciIHZpZXdCb3g9IjAgMCAyNCAyNCI+PHBhdGggZD0iTTE3LDNBMiwyIDAgMCwxIDE5LDVWMTVBMiwyIDAgMCwxIDE3LDE3SDEzVjE5SDE0QTEsMSAwIDAsMSAxNSwyMEgyMlYyMkgxNUExLDEgMCAwLDEgMTQsMjNIMTBBMSwxIDAgMCwxIDksMjJIMlYyMEg5QTEsMSAwIDAsMSAxMCwxOUgxMVYxN0g3QzUuODksMTcgNSwxNi4xIDUsMTVWNUEyLDIgMCAwLDEgNywzSDE3WiIvPjwvc3ZnPg==;labelPosition=right;align=left;spacingLeft=5;fontSize=10;fontFamily=Lucida Console;" vertex="1" parent="1">
                    <mxGeometry x="750" y="610" width="20" height="20" as="geometry"/>
                </mxCell>
            </root>
        </mxGraphModel>
    </diagram>
</mxfile>